# xmcd CD database file
#
# Track frame offsets:
#	150
#	17678
#	37317
#	51384
#	60056
#	76824
#	98482
#	118288
#	132461
#	147189
#	158948
#	179461
#	190840
#	210739
#	223406
#
# Disc length: 3223 seconds
#
# Revision: 0
# Processed by: cddbd v1.5.2PL0 Copyright (c) Steve Scherf et al.
# Submitted via: CDex 1.70beta2
#
DISCID=dd0c950f
DTITLE=Samson Shmitt Gipsy Jazz Band - Alicia
DYEAR=2007
DGENRE=Jazz
TTITLE0=Samson Swing
TTITLE1=Ma petite Alicia
TTITLE2=Swing for Doudoune
TTITLE3=Première valse
TTITLE4=Petite Mélancolie
TTITLE5=Tango for Piazzolla
TTITLE6=Dans la vie
TTITLE7=Groovin' High
TTITLE8=Billets doux
TTITLE9=Pour mon père
TTITLE10=La vie
TTITLE11=I want to be happy
TTITLE12=Un jour viendra
TTITLE13=I wonder where my baby is tonight
TTITLE14=Moment d'inspiration
EXTD=YEAR: 2007
EXTT0=
EXTT1=
EXTT2=
EXTT3=
EXTT4=
EXTT5=
EXTT6=
EXTT7=
EXTT8=
EXTT9=
EXTT10=
EXTT11=
EXTT12=
EXTT13=
EXTT14=
PLAYORDER=
